<svg width="90" height="20" viewBox="0 0 90 20" fill="none" xmlns="http://www.w3.org/2000/svg">
<g clip-path="url(#clip0_755_42)">
<rect width="90" height="20" fill="white"/>
<path d="M0 0H50L43.2432 20H0V0Z" fill="#38383C"/>
<path d="M89.2012 0.798817H40.7397V19.4379H89.2012V0.798817Z" stroke="#38383C" stroke-width="1.59763"/>
<path d="M4.26025 17.0413V3.19517H7.91383V8.79313H8.09782L12.1457 3.19517H16.4038L11.8565 9.36104L16.5089 17.0413H12.1457L9.12293 11.849L7.91383 13.4716V17.0413H4.26025Z" fill="white"/>
<path d="M20.8024 17.0412H16.8597L21.3018 3.19507H26.2959L30.7381 17.0412H26.7953L23.8515 7.00817H23.7463L20.8024 17.0412ZM20.0665 11.5785H27.4788V14.391H20.0665V11.5785Z" fill="white"/>
<path d="M31.2679 17.0413V3.19517H37.0768C38.0756 3.19517 38.9496 3.398 39.6987 3.80365C40.4478 4.20929 41.0305 4.77946 41.4466 5.51413C41.8628 6.24881 42.0709 7.10743 42.0709 8.09C42.0709 9.08159 41.8562 9.94021 41.4269 10.6659C41.002 11.3915 40.404 11.9504 39.633 12.3426C38.8664 12.7347 37.9705 12.9307 36.9454 12.9307H33.4758V10.0101H36.2094C36.6387 10.0101 37.0045 9.93345 37.3068 9.78021C37.6135 9.62246 37.8478 9.39935 38.0099 9.11089C38.1764 8.82243 38.2596 8.48213 38.2596 8.09C38.2596 7.69337 38.1764 7.35533 38.0099 7.07588C37.8478 6.79193 37.6135 6.57558 37.3068 6.42684C37.0045 6.2736 36.6387 6.19697 36.2094 6.19697H34.9215V17.0413H31.2679Z" fill="white"/>
<path d="M52.4355 16.857H48.4614L52.9389 3.37933H57.9727L62.4501 16.857H58.4761L55.5088 7.09095H55.4028L52.4355 16.857ZM51.6937 11.5396H59.1649V14.2773H51.6937V11.5396Z" fill="#38383C"/>
<path d="M75.0371 8.43344H71.3015C71.275 8.12633 71.2043 7.84774 71.0895 7.59767C70.9791 7.3476 70.8246 7.13262 70.6259 6.95275C70.4316 6.76848 70.1953 6.62809 69.9172 6.53157C69.639 6.43066 69.3233 6.38021 68.97 6.38021C68.3518 6.38021 67.8286 6.52938 67.4002 6.82771C66.9763 7.12604 66.654 7.5538 66.4332 8.11098C66.2169 8.66816 66.1087 9.33722 66.1087 10.1181C66.1087 10.9429 66.2191 11.6339 66.4398 12.1911C66.665 12.7439 66.9896 13.1607 67.4135 13.4415C67.8374 13.7179 68.3474 13.8561 68.9435 13.8561C69.2835 13.8561 69.5882 13.8144 69.8575 13.731C70.1269 13.6433 70.3609 13.5183 70.5596 13.3559C70.7583 13.1936 70.9195 12.9984 71.0431 12.7702C71.1712 12.5377 71.2573 12.2767 71.3015 11.9871L75.0371 12.0134C74.9929 12.5838 74.8318 13.1651 74.5536 13.7574C74.2754 14.3453 73.8802 14.8893 73.368 15.3894C72.8602 15.8852 72.231 16.2844 71.4803 16.5871C70.7296 16.8899 69.8575 17.0412 68.864 17.0412C67.6188 17.0412 66.5017 16.7758 65.5126 16.2449C64.5279 15.7141 63.7485 14.9331 63.1745 13.9021C62.6049 12.8711 62.3201 11.6098 62.3201 10.1181C62.3201 8.61771 62.6115 7.35418 63.1944 6.32756C63.7772 5.29656 64.5632 4.51782 65.5523 3.99135C66.5414 3.4605 67.6453 3.19507 68.864 3.19507C69.7207 3.19507 70.5089 3.31133 71.2286 3.54385C71.9483 3.77638 72.5798 4.11639 73.1229 4.56389C73.666 5.007 74.1032 5.55321 74.4343 6.20253C74.7655 6.85184 74.9664 7.59548 75.0371 8.43344Z" fill="#38383C"/>
<path d="M75.9618 16.857V3.37933H85.738V6.32756H79.6444V8.64403H85.2346V11.5923H79.6444V13.9087H85.7115V16.857H75.9618Z" fill="#38383C"/>
</g>
<defs>
<clipPath id="clip0_755_42">
<rect width="90" height="20" fill="white"/>
</clipPath>
</defs>
</svg>
