<svg width="15" height="15" viewBox="0 0 15 15" fill="none" xmlns="http://www.w3.org/2000/svg">
<path fill-rule="evenodd" clip-rule="evenodd" d="M12.9814 7.5C12.9814 7.27575 12.8601 7.12847 12.6175 6.83393C11.7299 5.75634 9.77231 3.75 7.49998 3.75C5.22764 3.75 3.27001 5.75634 2.38246 6.83393C2.13986 7.12847 2.01855 7.27575 2.01855 7.5C2.01855 7.72425 2.13986 7.87153 2.38246 8.16607C3.27001 9.24366 5.22764 11.25 7.49998 11.25C9.77231 11.25 11.7299 9.24366 12.6175 8.16607C12.8601 7.87153 12.9814 7.72425 12.9814 7.5ZM7.49998 9.375C8.53551 9.375 9.37498 8.53553 9.37498 7.5C9.37498 6.46447 8.53551 5.625 7.49998 5.625C6.46444 5.625 5.62498 6.46447 5.62498 7.5C5.62498 8.53553 6.46444 9.375 7.49998 9.375Z" fill="white"/>
</svg>
